0
SECTION
2
HEADER
9
$INSUNITS
70
4
0
ENDSEC
0
SECTION
2
ENTITIES
0
LINE
8
0
10
0
20
0
11
297
21
0
0
LINE
8
0
10
297
20
0
11
297
21
210
0
LINE
8
0
10
297
20
210
11
0
21
210
0
LINE
8
0
10
0
20
210
11
0
21
0
0
LINE
8
0
10
10
20
10
11
287
21
10
0
LINE
8
0
10
287
20
10
11
287
21
200
0
LINE
8
0
10
287
20
200
11
10
21
200
0
LINE
8
0
10
10
20
200
11
10
21
10
0
LINE
8
0
10
187
20
10
11
187
21
40
0
LINE
8
0
10
187
20
40
11
287
21
40
0
LINE
8
0
10
187
20
25
11
287
21
25
0
LINE
8
0
10
237
20
10
11
237
21
40
0
TEXT
8
0
10
190
20
33
40
3.5
1
PART NO: EX-2040
0
TEXT
8
0
10
240
20
33
40
3.5
1
REV: B
0
TEXT
8
0
10
190
20
18
40
3
1
NAME: MOUNTING PLATE
0
TEXT
8
0
10
240
20
18
40
3
1
MATL: EN8 / C45
0
LINE
8
0
10
40
20
70
11
180
21
70
0
LINE
8
0
10
180
20
70
11
180
21
160
0
LINE
8
0
10
180
20
160
11
40
21
160
0
LINE
8
0
10
40
20
160
11
40
21
70
0
CIRCLE
8
0
10
52
20
82
40
5
0
CIRCLE
8
0
10
168
20
82
40
5
0
CIRCLE
8
0
10
52
20
148
40
5
0
CIRCLE
8
0
10
168
20
148
40
5
0
CIRCLE
8
0
10
110
20
115
40
16
0
LINE
8
0
10
40
20
170
11
180
21
170
0
LINE
8
0
10
40
20
160
11
40
21
173
0
LINE
8
0
10
180
20
160
11
180
21
173
0
LINE
8
0
10
190
20
70
11
190
21
160
0
LINE
8
0
10
180
20
70
11
193
21
70
0
LINE
8
0
10
180
20
160
11
193
21
160
0
LINE
8
0
10
126
20
115
11
140
21
128
0
LINE
8
0
10
57
20
148
11
70
21
158
0
DIMENSION
8
0
2
*NONE
10
110
20
174
11
110
21
174
70
0
42
140
1
<>%%p0.2
0
DIMENSION
8
0
2
*NONE
10
197
20
115
11
197
21
115
70
0
42
90
1
<>
0
DIMENSION
8
0
2
*NONE
10
152
20
131
11
152
21
131
70
3
42
32
1
%%c<>{\H0.7x;\S+0.025^0;}
0
DIMENSION
8
0
2
*NONE
10
80
20
161
11
80
21
161
70
3
42
10
1
4X %%c<>%%p0.1
0
DIMENSION
8
0
2
*NONE
10
52
20
62
11
52
21
62
70
0
42
12
1
<>
0
TEXT
8
0
10
60
20
55
40
3
1
R2 ALL CORNERS
0
TOLERANCE
8
0
10
138
20
98
40
3
1
{\Fgdt;j}%%v{\Fgdt;n}0.05{\Fgdt;m}%%vA%%vB%%vC
0
TEXT
8
0
10
40
20
40
40
3.5
1
Ra 1.6
0
TEXT
8
0
10
40
20
30
40
3
1
NOTE: HARDEN AND TEMPER 28-32 HRC
0
TEXT
8
0
10
120
20
52
40
3.5
1
M8x1.25-6H THRU
0
ENDSEC
0
EOF